<?xml version="1.0" standalone="no"?>
<!DOCTYPE svg PUBLIC "-//W3C//DTD SVG 20010904//EN"
 "http://www.w3.org/TR/2001/REC-SVG-20010904/DTD/svg10.dtd">
<svg version="1.0" xmlns="http://www.w3.org/2000/svg"
 width="512.000000pt" height="512.000000pt" viewBox="0 0 512.000000 512.000000"
 preserveAspectRatio="xMidYMid meet">

<g transform="translate(0.000000,512.000000) scale(0.100000,-0.100000)"
fill="#000000" stroke="none">
<path d="M1927 4859 c-423 -29 -838 -235 -1120 -556 -183 -208 -323 -486 -377
-747 -96 -457 -8 -906 251 -1286 502 -736 1499 -945 2251 -473 l96 60 573
-574 c631 -630 624 -625 738 -625 41 0 75 7 105 21 53 26 131 107 153 159 24
54 20 148 -7 202 -15 32 -194 218 -601 625 l-578 580 40 63 c115 180 202 408
239 627 19 113 22 154 17 315 -8 274 -57 475 -172 698 -311 610 -926 958
-1608 911z m348 -494 c220 -42 423 -147 588 -304 158 -150 276 -348 333 -556
26 -93 28 -113 28 -300 0 -186 -2 -207 -27 -300 -32 -120 -126 -314 -196 -406
-74 -97 -226 -236 -323 -297 -400 -248 -906 -236 -1295 30 -98 66 -244 212
-304 303 -173 261 -239 550 -194 848 89 591 619 1028 1214 1001 57 -3 136 -11
176 -19z"/>
</g>
</svg>
